<?xml version="1.0" encoding="UTF-8"?>
<svg version="1.1" xmlns="http://www.w3.org/2000/svg" width="1024" height="1024">
<path d="M0 0 C337.92 0 675.84 0 1024 0 C1024 337.92 1024 675.84 1024 1024 C686.08 1024 348.16 1024 0 1024 C0 686.08 0 348.16 0 0 Z " fill="#020202" transform="translate(0,0)"/>
<path d="M0 0 C1.01807307 -0.00322445 2.03614613 -0.00644889 3.08506989 -0.00977105 C4.19663256 -0.00822245 5.30819523 -0.00667385 6.45344162 -0.00507832 C7.63967739 -0.00734387 8.82591316 -0.00960943 10.04809546 -0.01194364 C13.33729927 -0.0171791 16.62644842 -0.01792847 19.91565251 -0.01674926 C23.46451283 -0.01654516 27.01336501 -0.02206496 30.56222153 -0.02680683 C37.51422086 -0.03511223 44.46621172 -0.03786163 51.4182156 -0.03841921 C57.07019474 -0.03889448 62.72217107 -0.04094976 68.37414932 -0.04411983 C84.4022398 -0.05292654 100.43032358 -0.05753925 116.45841649 -0.05678936 C117.32244068 -0.0567494 118.18646486 -0.05670945 119.0766716 -0.05666828 C119.9417522 -0.0566274 120.80683279 -0.05658652 121.69812796 -0.0565444 C135.71440416 -0.05613805 149.73065349 -0.06570478 163.74692193 -0.07980665 C178.14235356 -0.09417556 192.5377721 -0.10107653 206.93321109 -0.10021287 C215.01364829 -0.09988105 223.09405733 -0.10262144 231.17448807 -0.11339092 C238.05524077 -0.12250276 244.93595253 -0.1246656 251.81670865 -0.1178815 C255.32564874 -0.11461958 258.83451033 -0.11454767 262.34344292 -0.12323475 C266.15207056 -0.13094638 269.96049227 -0.12631506 273.76911545 -0.11860371 C274.87175523 -0.12374727 275.97439501 -0.12889083 277.11044812 -0.13419026 C291.28326985 -0.0708187 302.80764715 3.95254715 313.30274582 13.87863445 C322.67578559 23.92117707 327.36214634 35.96418707 327.23946762 49.62939739 C327.24344203 50.53067863 327.24741643 51.43195987 327.25151128 52.36055267 C327.26106103 55.35128295 327.24936083 58.34153146 327.23756027 61.33224773 C327.23999062 63.48820451 327.24371229 65.64416017 327.24862289 67.80011272 C327.25800108 73.63464298 327.24863283 79.46900458 327.23529077 85.30352163 C327.22394664 91.41766054 327.22808599 97.53179151 327.23003769 103.64593792 C327.23091959 113.90989203 327.2198608 124.17377995 327.20142746 134.43771648 C327.1802502 146.29727454 327.17675301 158.15673576 327.18298942 170.0163089 C327.18868718 181.43720566 327.18303325 192.85806838 327.17181587 204.27896023 C327.16717653 209.13442776 327.16629315 213.98987444 327.16840172 218.84534359 C327.17028762 224.56306573 327.16215736 230.28068953 327.14634132 235.99838924 C327.1421052 238.09458287 327.14124339 240.19078649 327.14403152 242.28698254 C327.14726375 245.15204193 327.13814528 248.01680941 327.12594223 250.8818388 C327.12972155 251.70772349 327.13350088 252.53360819 327.13739473 253.3845197 C327.0365871 266.79930909 322.06169749 278.4287274 312.86524582 288.12863445 C299.80062565 299.92730306 284.90163052 301.57942435 267.9763298 301.41818523 C266.18800371 301.41245815 264.39967244 301.40819044 262.61133957 301.40526104 C258.77981914 301.39669774 254.94847091 301.37950263 251.11701393 301.35593319 C245.05186326 301.32029856 238.98690017 301.31412957 232.92165756 301.31366253 C215.68140392 301.3087158 198.44145105 301.27945748 181.20142746 301.1872282 C171.66475742 301.1364564 162.12858439 301.11785628 152.59178787 301.13481605 C146.56836928 301.14379521 140.5468398 301.11371275 134.52372539 301.05455613 C130.77107165 301.0273049 127.019223 301.03793094 123.2665596 301.05914402 C121.53397582 301.06148697 119.80128966 301.04856166 118.06896019 301.01878452 C106.6321362 300.8217916 106.6321362 300.8217916 96.93813705 306.543643 C95.5538788 308.04789813 94.19166413 309.57313811 92.86524582 311.12863445 C91.10940625 312.58441065 89.34204238 314.02668234 87.55274582 315.44113445 C82.73939145 319.33119377 78.21763132 323.4573528 73.70411301 327.68429852 C69.49131441 331.60742039 65.1012923 335.2475986 60.61133957 338.8512907 C57.07527063 341.78376323 53.72322325 344.89838731 50.36304855 348.02756023 C46.14289541 351.93335152 41.73947666 355.57400127 37.24024582 359.1559782 C34.82092504 361.09385664 34.82092504 361.09385664 32.67774582 363.3825407 C30.86524582 365.12863445 30.86524582 365.12863445 28.86524582 365.12863445 C28.86524582 344.00863445 28.86524582 322.88863445 28.86524582 301.12863445 C17.88680414 301.28586928 17.88680414 301.28586928 6.90919113 301.48898602 C-7.89193319 301.67232759 -20.13689562 298.2376231 -31.38866043 288.09738445 C-41.4687723 277.53908891 -45.45584742 265.04114545 -45.40217972 250.73707867 C-45.40671083 249.83539056 -45.41124194 248.93370246 -45.41591036 248.00469047 C-45.42849277 245.00648248 -45.42693799 242.00845759 -45.42528152 239.01022625 C-45.43127058 236.85105438 -45.43807699 234.69188465 -45.44563675 232.5327177 C-45.46326453 226.68344641 -45.46799075 220.83423368 -45.46926832 214.98493838 C-45.47069219 211.32654544 -45.47496624 207.66816728 -45.48026276 204.00977802 C-45.49875168 191.23566655 -45.5069347 178.46159675 -45.50535965 165.68747234 C-45.50415825 153.7978602 -45.52526338 141.90842959 -45.55684698 130.01886338 C-45.58303321 119.79521576 -45.59372597 109.57162735 -45.59244883 99.34794647 C-45.59193994 93.24876822 -45.59758343 87.14975143 -45.61880493 81.05060673 C-45.63822698 75.31230507 -45.63828447 69.57431824 -45.62377167 63.83600521 C-45.62168748 61.73664608 -45.62636102 59.63726704 -45.63849258 57.53794193 C-45.72919937 40.74670528 -43.76569306 27.04062548 -32.13475418 14.12863445 C-23.01766359 5.71097073 -12.58321707 0.01010467 0 0 Z " fill="#88C35A" transform="translate(371.1347541809082,277.8713655471802)"/>
<path d="M0 0 C2.68223798 1.50045986 5.0095207 3.17646681 7.4296875 5.07421875 C7.9673877 5.4928418 8.50508789 5.91146484 9.05908203 6.34277344 C42.85739357 33.0003309 72.76447864 88.61319786 78.4296875 131.07421875 C79.65982791 145.83590363 73.6996387 156.02158463 64.4296875 167.07421875 C65.59757812 167.41259766 65.59757812 167.41259766 66.7890625 167.7578125 C83.3542652 173.74759073 99.90231717 183.08539939 108.4296875 199.07421875 C112.78804421 210.46175441 113.4296875 219.5281479 113.4296875 232.07421875 C32.2496875 232.07421875 -48.9303125 232.07421875 -132.5703125 232.07421875 C-132.5703125 216.821401 -132.5703125 216.821401 -130.9453125 210.44921875 C-130.76637451 209.73121094 -130.58743652 209.01320313 -130.40307617 208.2734375 C-126.44020772 193.37799943 -117.57573883 183.98322286 -104.53515625 176.32788086 C-97.7492302 172.48609968 -90.70032236 169.21951388 -83.5703125 166.07421875 C-84.47523438 165.05714844 -84.47523438 165.05714844 -85.3984375 164.01953125 C-94.23980081 153.72362107 -97.67392816 145.58188911 -97.06640625 131.95703125 C-94.14810414 95.52555906 -68.73460537 50.69174401 -45.5703125 23.07421875 C-44.78269531 22.12289063 -43.99507813 21.1715625 -43.18359375 20.19140625 C-32.60451326 7.95987679 -17.45635274 -6.28747052 0 0 Z " fill="#030302" transform="translate(521.5703125,312.92578125)"/>
<path d="M0 0 C6.01494866 2.70170683 9.69271486 6.51618595 13.01171875 12.15625 C13.38425781 12.76082031 13.75679687 13.36539062 14.140625 13.98828125 C16.46901748 19.78315939 15.9393748 27.31784423 14.03125 33.15625 C11.99574625 37.36504544 9.79526789 41.28597134 6.01171875 44.15625 C5.35171875 44.15625 4.69171875 44.15625 4.01171875 44.15625 C4.11194336 44.79438629 4.21216797 45.43252258 4.31542969 46.08999634 C5.35899765 52.74030177 6.39618153 59.39158063 7.4296875 66.04345703 C7.81607529 68.52483166 8.20408244 71.00595471 8.59375 73.48681641 C9.15401749 77.05566314 9.70842837 80.62537828 10.26171875 84.1953125 C10.43670898 85.30178131 10.61169922 86.40825012 10.79199219 87.54824829 C10.9521582 88.58887421 11.11232422 89.62950012 11.27734375 90.70166016 C11.49052246 92.06733627 11.49052246 92.06733627 11.70800781 93.46060181 C12.03272372 96.34268389 12.01171875 99.2559332 12.01171875 102.15625 C-2.50828125 102.15625 -17.02828125 102.15625 -31.98828125 102.15625 C-29.74288248 81.94766104 -29.74288248 81.94766104 -28.69921875 75.171875 C-28.47783489 73.70833782 -28.25648149 72.24479604 -28.03515625 70.78125 C-27.69625362 68.56946438 -27.35582503 66.35792034 -27.01464844 64.14648438 C-26.67665668 61.94715772 -26.34398163 59.74707326 -26.01171875 57.546875 C-25.81497559 56.26844727 -25.61823242 54.99001953 -25.41552734 53.67285156 C-25.02110578 50.42642401 -24.74139893 47.41797996 -24.98828125 44.15625 C-26.63179582 42.79448078 -28.30350781 41.46662934 -29.98828125 40.15625 C-35.22195857 33.93241751 -35.70381007 27.62082412 -35.40234375 19.6875 C-34.53711107 12.30853446 -31.60871962 8.14803434 -25.96484375 3.48046875 C-17.96564496 -1.87867827 -9.2845973 -2.62153336 0 0 Z " fill="#87C259" transform="translate(521.98828125,417.84375)"/>
<path d="M0 0 C29.00023656 13.66249912 51.23563222 46.54692183 64.04296875 74.93359375 C66.34641176 81.84392277 66.23649242 90.38457008 63.23046875 97.05859375 C54.75087827 111.56441005 39.91583267 122.69500114 25.04296875 129.93359375 C24.05296875 129.93359375 23.06296875 129.93359375 22.04296875 129.93359375 C21.67578125 126.6796875 21.67578125 126.6796875 22.04296875 122.93359375 C24.53515625 120.78125 24.53515625 120.78125 27.91796875 118.99609375 C29.12140377 118.32289155 30.3219042 117.64441867 31.51953125 116.9609375 C32.41720215 116.45602783 32.41720215 116.45602783 33.33300781 115.94091797 C42.85521796 110.33146065 54.04733452 100.91758592 57.04296875 89.93359375 C59.21643908 75.36019651 48.69840225 60.68507266 40.5546875 49.41015625 C38.13920983 46.17811802 35.60921735 43.04651029 33.04296875 39.93359375 C32.59808105 39.38719238 32.15319336 38.84079102 31.69482422 38.27783203 C16.2162805 18.83568643 16.2162805 18.83568643 -4.95703125 6.93359375 C-13.05963955 6.30914461 -19.39123813 10.13669804 -25.45605469 15.18017578 C-29.0661714 18.31551569 -32.53609445 21.59360958 -35.95703125 24.93359375 C-36.51680664 25.46927979 -37.07658203 26.00496582 -37.65332031 26.55688477 C-41.96475802 30.75107327 -45.71328882 35.19641102 -49.33203125 39.99609375 C-49.89293457 40.73706299 -50.45383789 41.47803223 -51.03173828 42.24145508 C-68.23878185 64.45338154 -68.23878185 64.45338154 -72.95703125 90.93359375 C-67.11125574 106.27586625 -51.07053664 116.11206615 -36.95703125 122.93359375 C-37.28703125 125.24359375 -37.61703125 127.55359375 -37.95703125 129.93359375 C-42.89129158 129.38217352 -46.40976585 127.1555018 -50.51953125 124.55859375 C-51.22263428 124.11523682 -51.9257373 123.67187988 -52.65014648 123.21508789 C-63.5474028 116.1477675 -76.49760301 106.06236394 -80.51171875 93.20703125 C-83.77666163 76.53863865 -75.18543241 63.14385582 -66.26708984 49.83691406 C-62.72291209 44.68775086 -58.90634303 39.77627326 -54.95703125 34.93359375 C-54.51746094 34.39105957 -54.07789063 33.84852539 -53.625 33.28955078 C-20.49736236 -7.39204746 -20.49736236 -7.39204746 0 0 Z " fill="#85BC56" transform="translate(519.95703125,367.06640625)"/>
<path d="M0 0 C7.17643049 4.15670591 10.36780179 11.36096252 12.9375 18.9921875 C14.32267456 27.12057447 13.97866516 36.28960541 11.29296875 44.078125 C10.90818359 45.19960938 10.90818359 45.19960938 10.515625 46.34375 C8.00382425 52.85502748 4.34728828 56.57983429 -1.5390625 60.20703125 C-7.04098871 62.41771512 -13.99079626 62.21315115 -19.41796875 59.9453125 C-27.07260441 55.088052 -30.51589893 48.67620773 -32.70703125 40.078125 C-33.1499468 36.62923101 -33.23220338 33.24033472 -33.20703125 29.765625 C-33.20131104 28.84644287 -33.19559082 27.92726074 -33.18969727 26.98022461 C-32.97304944 18.70602854 -31.58920891 11.4715716 -25.95703125 5.09765625 C-18.60024985 -1.57735446 -9.58346161 -3.26363195 0 0 Z " fill="#84BC56" transform="translate(628.70703125,698.921875)"/>
<path d="M0 0 C26 0 26 0 34 4 C37.82333256 7.98263809 39.298595 10.47814638 39.5 16 C39.1606413 22.04425364 37.49513735 26.32252883 33.4375 30.875 C31 33 31 33 29 34 C29.63259542 37.16075744 30.72774337 39.46161501 32.43359375 42.1875 C32.91763672 42.96867188 33.40167969 43.74984375 33.90039062 44.5546875 C34.66125977 45.76511719 34.66125977 45.76511719 35.4375 47 C36.43762678 48.60327622 37.43637436 50.2074138 38.43359375 51.8125 C38.87759521 52.52019531 39.32159668 53.22789062 39.77905273 53.95703125 C40.95840809 55.9304057 42.00049132 57.93064792 43 60 C38.98897265 61.09807593 35.97515672 61.32839411 32 60 C27.22623711 55.16139822 23.7428128 48.18255188 21.14404297 41.94580078 C20.22594996 39.73891325 20.22594996 39.73891325 18 37 C15.03 36.67 12.06 36.34 9 36 C9 43.92 9 51.84 9 60 C6.03 60 3.06 60 0 60 C0 40.2 0 20.4 0 0 Z " fill="#85BE57" transform="translate(497,699)"/>
<path d="M0 0 C26 0 26 0 34 4 C39.32676064 9.55343131 40.44109787 13.58227387 40.33203125 21.078125 C39.68752732 26.74975954 37.34940598 30.74562617 33.26171875 34.66796875 C26.01451138 39.69176105 17.39871132 38.33065793 9 38 C9 45.26 9 52.52 9 60 C6.03 60 3.06 60 0 60 C0 40.2 0 20.4 0 0 Z " fill="#84BD5A" transform="translate(341,699)"/>
<path d="M0 0 C3.96 0 7.92 0 12 0 C13.4336064 4.32026438 14.85744444 8.64358183 16.27246094 12.9699707 C16.75483621 14.44024407 17.23983457 15.90965961 17.72753906 17.37817383 C18.42950504 19.49338356 19.12187174 21.61153414 19.8125 23.73046875 C20.03123779 24.38274948 20.24997559 25.03503021 20.4753418 25.70707703 C21.61743715 29.24541826 22.24864265 32.27968438 22 36 C22.66 36 23.32 36 24 36 C23.938125 35.030625 23.87625 34.06125 23.8125 33.0625 C23.81212511 30.0577519 24.31165105 27.69804872 25.31640625 24.87109375 C26.45300864 21.59433257 27.54379284 18.31304948 28.5703125 15 C28.95509766 13.76443359 28.95509766 13.76443359 29.34765625 12.50390625 C29.87542126 10.80391947 30.40140226 9.10337803 30.92578125 7.40234375 C31.30669922 6.18224609 31.30669922 6.18224609 31.6953125 4.9375 C32.0358667 3.83728516 32.0358667 3.83728516 32.38330078 2.71484375 C33 1 33 1 34 0 C37.63 0 41.26 0 45 0 C45 19.8 45 39.6 45 60 C42.36 60 39.72 60 37 60 C37 44.49 37 28.98 37 13 C34.87294909 20.07279864 34.87294909 20.07279864 32.75292969 27.14770508 C30.72398253 33.85384035 28.46436566 40.44158141 26 47 C23.69 47 21.38 47 19 47 C15.37 35.45 11.74 23.9 8 12 C8.33 15.3 8.66 18.6 9 22 C9.07624864 25.10536948 9.11820357 28.18547508 9.09765625 31.2890625 C9.0962413 32.11836273 9.09482635 32.94766296 9.09336853 33.80209351 C9.08784177 36.40976821 9.0753039 39.01735195 9.0625 41.625 C9.0574755 43.410155 9.05291428 45.19531136 9.04882812 46.98046875 C9.03789651 51.3203467 9.0206841 55.66015802 9 60 C6.03 60 3.06 60 0 60 C0 40.2 0 20.4 0 0 Z " fill="#84BD59" transform="translate(653,699)"/>
<path d="M0 0 C3.63 0 7.26 0 11 0 C21 27.97260274 21 27.97260274 21 34 C21.66 34 22.32 34 23 34 C23.12238037 32.98091553 23.24476074 31.96183105 23.37084961 30.91186523 C23.96600742 27.21135548 24.86295422 23.95271224 26.06640625 20.41015625 C26.46923828 19.21455078 26.87207031 18.01894531 27.28710938 16.78710938 C27.70798828 15.55798828 28.12886719 14.32886719 28.5625 13.0625 C28.99209513 11.79380883 29.42113659 10.52493004 29.84960938 9.25585938 C30.89431794 6.16868688 31.94459782 3.08352965 33 0 C36.63 0 40.26 0 44 0 C44 19.8 44 39.6 44 60 C41.36 60 38.72 60 36 60 C35.97516009 54.30745761 35.95707398 48.61494724 35.94506836 42.92236328 C35.94005987 40.98843841 35.93325118 39.05451729 35.92456055 37.12060547 C35.91234169 34.3303942 35.90673671 31.54023328 35.90234375 28.75 C35.89718246 27.89446533 35.89202118 27.03893066 35.88670349 26.1574707 C35.88662796 25.33722412 35.88655243 24.51697754 35.88647461 23.671875 C35.884254 22.9612793 35.88203339 22.25068359 35.87974548 21.51855469 C36.047912 17.99655331 36.56265181 14.49878553 37 11 C33.04 22.88 29.08 34.76 25 47 C23.02 47 21.04 47 19 47 C15.04387844 38.54510304 12.4211894 29.93514922 9.96826172 20.94848633 C9.7260791 20.06443115 9.48389648 19.18037598 9.234375 18.26953125 C9.02006836 17.47135986 8.80576172 16.67318848 8.58496094 15.85083008 C8.15772599 14.00401269 8.15772599 14.00401269 7 13 C7.16298584 14.12792969 7.32597168 15.25585938 7.49389648 16.41796875 C8.07211509 21.06360564 8.12738634 25.63643484 8.09765625 30.3125 C8.0962413 31.16682617 8.09482635 32.02115234 8.09336853 32.90136719 C8.08781962 35.60094873 8.07527697 38.30044399 8.0625 41 C8.05747839 42.84244671 8.05291664 44.68489473 8.04882812 46.52734375 C8.03786699 51.01826186 8.02063825 55.50911636 8 60 C5.36 60 2.72 60 0 60 C0 40.2 0 20.4 0 0 Z " fill="#86C05B" transform="translate(713,699)"/>
<path d="M0 0 C2.97 0 5.94 0 9 0 C9 7.92 9 15.84 9 24 C16.26 24 23.52 24 31 24 C31 16.08 31 8.16 31 0 C33.97 0 36.94 0 40 0 C40 19.8 40 39.6 40 60 C37.03 60 34.06 60 31 60 C31 50.76 31 41.52 31 32 C23.74 32 16.48 32 9 32 C9 41.24 9 50.48 9 60 C6.03 60 3.06 60 0 60 C0 40.2 0 20.4 0 0 Z " fill="#86C15B" transform="translate(392,699)"/>
<path d="M0 0 C11.55 0 23.1 0 35 0 C35 2.64 35 5.28 35 8 C26.42 8 17.84 8 9 8 C9 13.61 9 19.22 9 25 C15.93 25 22.86 25 30 25 C30 27.31 30 29.62 30 32 C23.07 32 16.14 32 9 32 C9 38.6 9 45.2 9 52 C17.91 52 26.82 52 36 52 C36 54.64 36 57.28 36 60 C24.12 60 12.24 60 0 60 C0 40.2 0 20.4 0 0 Z " fill="#85BF5A" transform="translate(448,699)"/>
<path d="M0 0 C5.09197841 1.96735529 6.65605654 5.31211309 9 10 C11.74065608 18.22196823 10.89078617 29.94069533 7.9921875 38.04296875 C6.14325597 41.68987701 3.63442925 44.18278537 0 46 C-4.3787478 46.50524013 -6.45525468 46.33522789 -10.25 44 C-14.87349456 39.59302852 -16.13475927 33.85385587 -16.43359375 27.6875 C-16.45066081 25.79174304 -16.45170544 23.89578056 -16.4375 22 C-16.45748047 21.05382812 -16.47746094 20.10765625 -16.49804688 19.1328125 C-16.49306398 11.93751052 -15.04402713 6.47888815 -10.25 1 C-6.8450597 -0.5133068 -3.62093245 -0.51314612 0 0 Z " fill="#040503" transform="translate(622,706)"/>
<path d="M0 0 C-0.99 2.31 -1.98 4.62 -3 7 C-5.76276177 6.47731534 -8.3260876 5.89130413 -11 5 C-15.81591705 4.41976903 -20.42643901 3.98869698 -24.4375 7.0625 C-29.74369783 13.14521459 -30.48636869 18.64787904 -30.375 26.4375 C-30.38660156 27.24509766 -30.39820313 28.05269531 -30.41015625 28.88476562 C-30.38269212 34.56526373 -29.38093212 38.82900184 -27 44 C-22.84496985 47.95234575 -20.00839404 49.33239084 -14.234375 49.30078125 C-10.97893719 48.86254924 -8.4880492 47.49513579 -5.6640625 45.875 C-4 45 -4 45 -2 45 C-1.34 47.64 -0.68 50.28 0 53 C-7.29311308 58.40230598 -14.09145184 59.11488324 -23 58 C-30.57321312 55.95967317 -34.94999774 50.46379693 -38.8125 43.9375 C-42.63188989 34.48953554 -42.46795309 20.73105228 -39.04296875 11.1796875 C-36.05080788 4.92640747 -32.14396232 0.33910996 -26 -3 C-17.16361339 -5.84920527 -7.91065152 -4.57877504 0 0 Z " fill="#83BD55" transform="translate(287,702)"/>
<path d="M0 0 C1.546875 0.99 1.546875 0.99 3.125 2 C2.465 4.31 1.805 6.62 1.125 9 C-1.63776177 8.47731534 -4.2010876 7.89130413 -6.875 7 C-11.28423548 6.61138942 -15.44222589 6.55424805 -19.6875 7.875 C-24.95866245 12.99555781 -27.09856414 18.62458932 -27.36914062 25.96484375 C-27.39235433 34.27534971 -26.85312287 41.51341713 -21.3125 48 C-17.54191004 51.0938174 -15.1599424 51.32393235 -10.40625 51.30078125 C-6.17326023 50.7977871 -2.60862603 48.97714475 1.125 47 C4.125 52.75 4.125 52.75 4.125 55 C-2.31884665 59.88963974 -8.20028212 60.84819789 -16.2109375 60.53515625 C-22.99558751 59.54422123 -27.63505304 56.96058564 -31.78125 51.48046875 C-36.28919619 44.21884788 -37.08095175 38.77720278 -37.125 30.375 C-37.1559375 28.93447266 -37.1559375 28.93447266 -37.1875 27.46484375 C-37.23893577 17.98780255 -35.47755722 10.6663769 -28.8046875 3.73046875 C-20.98159394 -3.2849775 -9.55057534 -4.75829376 0 0 Z " fill="#84BC56" transform="translate(584.875,700)"/>
<path d="M0 0 C9.9 0 19.8 0 30 0 C30 2.64 30 5.28 30 8 C26.37 8 22.74 8 19 8 C19 22.52 19 37.04 19 52 C22.63 52 26.26 52 30 52 C30 54.64 30 57.28 30 60 C20.1 60 10.2 60 0 60 C0 57.36 0 54.72 0 52 C3.3 52 6.6 52 10 52 C10 37.48 10 22.96 10 8 C6.7 8 3.4 8 0 8 C0 5.36 0 2.72 0 0 Z " fill="#82BA57" transform="translate(297,699)"/>
<path d="M0 0 C0.66 0 1.32 0 2 0 C2.51046875 1.17755859 2.51046875 1.17755859 3.03125 2.37890625 C8.05320028 13.26425062 13.78827324 18.82155554 25 23 C25 23.66 25 24.32 25 25 C24.21496094 25.3403125 23.42992187 25.680625 22.62109375 26.03125 C11.73574938 31.05320028 6.17844446 36.78827324 2 48 C1.34 48 0.68 48 0 48 C-0.3403125 47.21496094 -0.680625 46.42992187 -1.03125 45.62109375 C-6.05320028 34.73574938 -11.78827324 29.17844446 -23 25 C-23 24.34 -23 23.68 -23 23 C-22.21496094 22.6596875 -21.42992187 22.319375 -20.62109375 21.96875 C-9.73574938 16.94679972 -4.17844446 11.21172676 0 0 Z " fill="#7D7D7D" transform="translate(967,944)"/>
<path d="M0 0 C14.02413793 -0.57241379 14.02413793 -0.57241379 19 4 C21.57399511 6.57399511 21.32659936 7.73569284 21.375 11.3125 C21.30184165 15.03869877 21.13966794 16.74652856 19.3125 20.0625 C13.04544569 25.31327523 8.56603383 24 0 24 C0 16.08 0 8.16 0 0 Z " fill="#080B06" transform="translate(350,706)"/>
<path d="M0 0 C12.98288509 -0.43276284 12.98288509 -0.43276284 18 3 C20.48018753 5.48018753 20.32361558 6.38515951 20.375 9.8125 C20.30643772 13.46212295 20.09604468 14.83771762 18.1875 18.0625 C13.15007412 22.52422006 6.33809939 21.06275346 0 21 C0 14.07 0 7.14 0 0 Z " fill="#070A05" transform="translate(506,706)"/>
<path d="M0 0 C0.99 0.33 1.98 0.66 3 1 C3.33 4.96 3.66 8.92 4 13 C2.35 13 0.7 13 -1 13 C-1.99 13.495 -1.99 13.495 -3 14 C-2.40380045 9.13103697 -1.43023178 4.67209049 0 0 Z " fill="#80B354" transform="translate(739,719)"/>
<path d="M0 0 C1.41330824 2.5910651 1.01400419 3.44398326 0.3125 6.25 C-0.079375 7.508125 -0.47125 8.76625 -0.875 10.0625 C-2.195 9.7325 -3.515 9.4025 -4.875 9.0625 C-4.875 7.4125 -4.875 5.7625 -4.875 4.0625 C-5.865 4.5575 -5.865 4.5575 -6.875 5.0625 C-6.545 3.4125 -6.215 1.7625 -5.875 0.0625 C-3.43248125 -0.86397263 -2.38277734 -1.19138867 0 0 Z " fill="#7FB551" transform="translate(685.875,718.9375)"/>
<path d="M0 0 C1.90318884 2.85478326 2.4619099 4.41941308 3.125 7.6875 C3.29257812 8.49574219 3.46015625 9.30398438 3.6328125 10.13671875 C3.75398437 10.75160156 3.87515625 11.36648438 4 12 C3.01 12.33 2.02 12.66 1 13 C0.67 8.71 0.34 4.42 0 0 Z " fill="#212D18" transform="translate(660,708)"/>
<path d="M0 0 C2 3 2 3 1.75 5.5625 C1 8 1 8 -1 10 C-2.46726798 6.18510326 -1.43336419 3.70988378 0 0 Z " fill="#7DB04F" transform="translate(672,723)"/>
<path d="M0 0 C0.33 0 0.66 0 1 0 C0.9129995 1.62600941 0.8048219 3.25089678 0.6875 4.875 C0.62949219 5.77992188 0.57148437 6.68484375 0.51171875 7.6171875 C0 10 0 10 -3 12 C-2.69106068 10.3743193 -2.3777305 8.74947252 -2.0625 7.125 C-1.88847656 6.22007812 -1.71445312 5.31515625 -1.53515625 4.3828125 C-1 2 -1 2 0 0 Z " fill="#1D2D19" transform="translate(750,708)"/>
<path d="M0 0 C2.20441813 4.40883627 2.14658882 5.41364471 1 10 C0.34 11.32 -0.32 12.64 -1 14 C-0.67 9.38 -0.34 4.76 0 0 Z " fill="#8CCA5F" transform="translate(692,708)"/>
<path d="M0 0 C3.7952131 1.49097658 5.61042731 3.75700849 8 7 C5 7 5 7 2.3125 4.625 C0 2 0 2 0 0 Z " fill="#78A84C" transform="translate(453,470)"/>
<path d="M0 0 C0.33 0 0.66 0 1 0 C1 2.64 1 5.28 1 8 C0.01 8.33 -0.98 8.66 -2 9 C-1.34 6.03 -0.68 3.06 0 0 Z " fill="#182514" transform="translate(690,710)"/>
</svg>
